<?xml version="1.0" standalone="no"?>
<!DOCTYPE svg PUBLIC "-//W3C//DTD SVG 20010904//EN"
 "http://www.w3.org/TR/2001/REC-SVG-20010904/DTD/svg10.dtd">
<svg version="1.0" xmlns="http://www.w3.org/2000/svg"
 width="293.000000pt" height="293.000000pt" viewBox="0 0 293.000000 293.000000"
 preserveAspectRatio="xMidYMid meet">
<metadata>
Created by potrace 1.11, written by Peter Selinger 2001-2013
</metadata>
<g transform="translate(0.000000,293.000000) scale(0.100000,-0.100000)"
fill="#000000" stroke="none">
<path d="M505 2778 c-2 -7 -16 -78 -31 -158 -14 -80 -27 -147 -29 -150 -2 -3
-6 -23 -9 -45 -4 -22 -24 -134 -46 -249 -22 -115 -43 -223 -46 -240 -2 -17
-20 -110 -39 -206 -19 -96 -39 -200 -44 -230 -5 -30 -22 -116 -36 -190 -26
-137 -61 -320 -71 -375 -3 -16 -9 -48 -14 -70 -5 -22 -18 -89 -29 -150 -11
-60 -23 -123 -26 -140 -28 -145 -56 -294 -59 -310 -2 -11 -7 -38 -10 -59 -8
-42 2 -56 40 -56 18 0 22 11 38 98 23 120 15 78 86 452 33 173 74 387 91 475
16 88 34 180 39 205 10 48 59 308 66 350 2 14 9 45 14 70 8 40 72 375 84 440
27 155 58 309 66 325 7 17 9 16 11 -12 1 -18 2 -36 3 -40 6 -26 16 -84 22
-118 3 -22 19 -119 35 -215 17 -96 32 -186 34 -200 2 -14 17 -108 35 -210 17
-102 33 -198 36 -215 2 -16 9 -55 14 -85 5 -30 12 -71 15 -90 3 -19 12 -71 20
-115 20 -112 26 -146 30 -179 3 -15 6 -35 9 -45 3 -9 8 -36 11 -61 6 -41 30
-188 39 -235 2 -11 25 -149 51 -307 l48 -288 27 0 c35 0 47 15 55 70 4 24 8
47 10 50 2 3 6 24 9 46 4 22 9 51 12 64 5 24 19 98 44 235 6 33 20 103 30 155
11 52 22 113 25 135 4 22 8 47 11 56 2 9 11 52 19 95 7 43 36 198 64 344 27
146 52 278 55 294 3 16 8 31 11 34 3 4 72 7 152 7 163 0 154 5 167 -81 11 -64
102 -589 110 -629 2 -11 7 -40 11 -65 14 -85 63 -375 70 -410 2 -14 6 -36 8
-50 3 -14 17 -97 32 -185 15 -88 29 -162 31 -164 2 -2 18 -1 36 3 33 6 34 8
47 79 7 39 19 104 26 142 8 39 16 81 19 95 2 14 19 102 36 195 18 94 34 181
37 195 2 14 16 84 30 155 14 72 27 141 29 155 3 14 20 106 39 205 19 99 37
194 39 210 15 84 27 139 32 144 3 3 71 6 151 6 162 1 156 3 167 -76 7 -45 11
-71 21 -119 3 -14 8 -45 11 -70 3 -25 7 -52 9 -60 2 -8 7 -31 10 -50 3 -19 12
-71 20 -115 8 -44 28 -161 45 -260 28 -161 40 -228 56 -330 2 -16 9 -52 14
-80 5 -27 11 -61 14 -75 2 -14 16 -98 32 -187 25 -149 29 -163 48 -163 48 1
50 10 32 110 -6 28 -27 154 -31 185 -2 11 -17 101 -35 200 -17 99 -33 189 -35
200 -7 48 -62 368 -69 401 -2 12 -7 39 -11 60 -7 48 -8 55 -40 239 -15 82 -30
177 -35 210 -5 33 -13 80 -18 105 -6 25 -13 61 -16 80 -8 47 -25 145 -32 185
-2 11 -17 101 -33 200 -17 99 -33 191 -36 205 -3 14 -12 72 -22 129 -17 108
-29 131 -68 131 -26 0 -29 -10 -65 -210 -12 -63 -30 -160 -41 -215 -11 -55
-22 -113 -24 -130 -7 -40 -62 -331 -80 -422 -8 -39 -18 -89 -21 -110 -3 -21
-12 -68 -20 -105 -7 -37 -16 -82 -19 -100 -3 -18 -28 -152 -56 -298 -27 -146
-64 -339 -81 -430 -16 -91 -31 -169 -32 -175 -1 -5 -10 -54 -20 -107 -10 -54
-22 -98 -27 -98 -5 0 -9 6 -10 13 -1 20 -6 55 -38 237 -45 258 -88 510 -95
550 -7 47 -35 210 -41 240 -10 48 -16 83 -40 235 -9 55 -27 159 -40 230 -13
72 -27 148 -30 170 -4 22 -9 49 -11 60 -1 11 -21 126 -43 255 -22 129 -43 246
-46 260 -2 13 -7 42 -10 65 -9 65 -14 73 -47 80 -32 7 -48 -4 -48 -36 0 -8
-11 -71 -24 -140 -13 -68 -27 -140 -30 -159 -3 -19 -14 -80 -25 -135 -11 -55
-25 -127 -31 -160 -6 -33 -13 -71 -16 -85 -3 -14 -25 -133 -50 -265 -25 -132
-48 -249 -50 -260 -2 -11 -6 -30 -8 -42 -3 -11 -8 -43 -12 -70 -5 -26 -9 -50
-9 -53 -2 -7 -17 -82 -21 -105 -16 -86 -90 -474 -109 -575 -14 -69 -26 -136
-29 -150 -14 -87 -30 -157 -38 -170 -8 -13 -8 -13 -6 0 1 8 -2 34 -6 58 -4 23
-9 52 -11 65 -1 12 -7 49 -14 82 -6 33 -13 78 -16 100 -3 22 -10 63 -15 90 -8
42 -97 571 -113 670 -16 100 -28 173 -31 190 -9 50 -22 126 -41 240 -8 50 -17
101 -20 115 -8 49 -76 446 -81 475 -2 17 -9 55 -14 85 -5 30 -12 71 -15 90 -3
19 -10 59 -15 89 -6 30 -10 56 -10 58 0 10 -71 1 -75 -9z m1009 -373 c3 -16 8
-48 11 -70 3 -22 8 -47 10 -55 3 -8 7 -33 10 -55 4 -22 8 -47 10 -55 2 -8 6
-28 9 -45 25 -155 47 -284 51 -300 4 -19 -1 -20 -133 -20 l-137 1 2 39 c2 22
12 85 22 140 11 55 23 116 26 135 3 19 10 55 15 80 5 25 24 122 42 215 l32
170 13 -75 c7 -41 15 -88 17 -105z m1030 -460 c8 -49 16 -101 18 -115 l3 -25
-134 0 c-91 0 -135 3 -138 11 -2 6 9 81 25 165 17 85 49 255 73 379 l43 225
47 -275 c27 -151 55 -315 63 -365z"/>
</g>
</svg>
